<svg xmlns="http://www.w3.org/2000/svg" width="410" height="410"><path d="M196 9c7.334-.066 14.666-.066 22 0l2.21.018C235.573 9.25 251.326 12.525 266 17v2l2.047.078c5.67.36 8.008.722 11.953 4.922 2.04.408 4.08.812 6.125 1.195C296.459 28.088 314.017 36.026 320 45v3l1.938.438C324 49 324 49 325 50c2.56.11 5.096.162 7.656.176 1.597.023 3.193.047 4.79.072 2.516.035 5.032.064 7.55.078 19.02.122 19.02.122 25.004 4.674 1.863 2.823 3 4.611 3 8h2l.028 3.956c.04 4.89.106 9.777.18 14.666.028 2.107.049 4.215.063 6.322-.142 16.012-.142 16.012 4.729 31.056l1.484 3.375 2.563 5.313C385 130 385 130 385 133l3 1 .34 3.426c.694 5.556 2.328 10.778 3.931 16.127 1.14 3.918 2.052 7.317 1.729 11.447h2l.184 2.371.253 3.066.247 3.06c.048 2.44.048 2.44 1.316 3.503 2.524 14.985 2.524 33.015 0 48l-1 1a123.141 123.141 0 0 0-.563 5.563l-.253 3.066L396 237h-2l-.344 3.922c-.55 4.953-1.742 9.56-3.156 14.328-2 6.813-2 6.813-3.5 13.75h-2l-.41 1.66c-6.476 23.848-23 46.683-40.883 63.478-1.93 1.897-1.93 1.897-3.057 5.026-3.194 3.418-4.147 3.322-8.687 3.609-2.583.041-5.154.05-7.736.032-1.403.011-2.805.025-4.207.041-3.714.036-7.427.037-11.141.03-3.66-.001-7.318.031-10.977.062-7.912.058-15.823.067-23.735.063-3.675-.001-7.349.002-11.023.004-7.048.004-14.096.001-21.144-.005.308 1.98.621 3.959.938 5.938l.527 3.34c.253 2.626.253 2.626 1.535 3.722a90.91 90.91 0 0 1 .098 5.129l-.01 3.135-.025 3.298-.014 3.311c-.012 2.71-.028 5.418-.049 8.127h-2l-.188 2.375L242 384c-2.55 1.164-2.55 1.164-5 2l.29 2.3c.11.995.22 1.989.335 3.012l.352 2.989C238 397 238 397 236 400l-1 2c-3.21 1.07-5.689 1.2-9.063 1.25l-3.222.078L220 403c-2.073-3.11-2.229-3.61-2.094-7.09.11-4.85-.111-9.632-.406-14.473l-.145-2.478c-.116-1.986-.235-3.973-.355-5.959h-2l-1-18h2l-1-1.5c-1.436-3.59-1.129-6.645-1-10.5l-14 1 .094 3.621c0 6.531-.83 12.964-1.594 19.442l-.434 3.779c-.35 3.053-.706 6.106-1.066 9.158h-1l-1 12h2c-.75 7.625-.75 7.625-3 11-2.715.328-2.715.328-5.938.25-1.06-.015-2.121-.03-3.214-.047C182 403 182 403 179 402c-2.036-5.073-2.23-10.605-2-16l-2.25-.75c-3.074-1.397-4.679-2.587-6.75-5.25-2.173-9.884-1.515-20.256 1-30h3v-7l-2.255.007c-18.424.048-36.837-.068-55.258-.38-3.333-.055-6.665-.105-9.997-.154-3.246-.048-6.49-.103-9.736-.157l-3.582-.05c-5.48-.1-10.772-.306-16.172-1.266v-2h-2v-3h-3a87.917 87.917 0 0 1-3-5c-2.065-2.409-2.89-2.963-6-4l-.938-2.438c-.778-2.695-.778-2.695-2.992-3.457-2.653-1.416-3.075-2.619-4.258-5.355-2.044-4.378-4.446-8.364-7.124-12.375-9.303-14.117-16.453-29.912-21.563-46l-.653-2.047C22.462 252.022 22 249.498 22 246h-3c-.194-2.124-.38-4.25-.563-6.375l-.316-3.586C18 233 18 233 19 231h-2v-6h-2c-.912-8.205-1.153-16.311-1.125-24.563l-.012-3.498c.008-6.708.305-13.28 1.137-19.939h2l-.063-2.875C17 171 17 171 18 169c.276-3.374.447-6.748.621-10.129L19 156l2-1c2.026-6.147 3.27-12.575 4-19h2l1-3.438c1.248-3.92 2.965-7.28 4.98-10.858 6.308-11.718 6.052-22.983 5.833-36.016-.027-3.198-.042-6.394-.04-9.592a318.295 318.295 0 0 0-.06-5.913l-.018-2.684-.04-2.348C39.095 62.413 40.24 61.109 42 59l1.875-3.125c2.41-3.26 3.311-3.766 7.125-4.875 2.76-.186 5.428-.277 8.188-.273l4.804-.063c2.508-.023 5.016-.039 7.525-.045 2.432-.01 4.863-.043 7.296-.08l2.26.015C86.07 50.46 88.376 49.361 92 46l3.188-1c2.918-.668 2.918-.668 3.714-2.852C102.642 34.83 114.682 29.864 122 27c2.584-.414 4.39-.356 7 0l1-3c1.977-.73 3.98-1.394 6-2l3-2c8.396-3.474 17.036-4.125 26-5v-2c10.344-3.469 20.242-3.304 31-3V9Zm-15 2 4 1ZM52 53v1h33v-1H52Zm277 0v1h33v-1h-33Zm44 20 1 3Zm0 6v15h1V79h-1ZM19 163l1 2Zm0 74 1 2Zm182 104v1h12v-1h-12Zm16 30 1 2Z" fill="#FAFCFD"/><path d="m56.962 64.874 3.276-.008 3.644.007 3.837-.005c3.53-.004 7.06-.002 10.59.001 3.802.003 7.603 0 11.404-.004 7.452-.004 14.905-.003 22.357 0 6.054.002 12.108.002 18.162.001h2.606l5.24-.001c16.399-.003 32.797 0 49.196.006 14.086.004 28.173.003 42.26-.001a95108.075 95108.075 0 0 1 54.234-.004h2.595c6.05.002 12.1 0 18.151-.002 7.368-.003 14.736-.002 22.105.003 3.763.003 7.526.004 11.289 0 4.07-.003 8.14.001 12.21.006l3.644-.007 3.276.008h2.851C362 65 362 65 363 66c.1 2.64.134 5.255.127 7.896l.005 2.537c.004 2.828 0 5.655-.003 8.483l.006 6.055c.004 5.497.002 10.995 0 16.493-.003 5.74 0 11.48 0 17.22.003 9.64 0 19.281-.005 28.922-.005 11.164-.003 22.327.002 33.49.005 9.567.005 19.133.003 28.699-.002 5.721-.002 11.443.001 17.165.003 5.377.001 10.755-.005 16.133 0 1.98 0 3.96.002 5.94.002 2.69-.001 5.38-.006 8.07l.007 2.407c-.02 5.376-.02 5.376-1.134 6.49-1.683.096-3.37.122-5.056.12l-3.318.004-3.673-.01h-3.843c-3.487 0-6.975-.006-10.462-.013-3.641-.006-7.282-.006-10.923-.008-6.899-.003-13.798-.011-20.697-.021-7.852-.011-15.704-.017-23.557-.022-16.157-.01-32.314-.028-48.471-.05-2.617-5.234-1.314-13.61-1.35-19.436a514.349 514.349 0 0 0-.082-5.824c-.221-11.239-.27-20.684 5.432-30.74 5.673-10.885 10.623-22.437 10-35l-2-2 4-9 4.34-.044c5.348-.058 10.697-.136 16.046-.218 2.308-.034 4.616-.062 6.925-.084 3.331-.034 6.662-.087 9.994-.142l3.091-.02c7.782-.157 15.294-.94 21.604-5.805 3.82-5.132 4.802-10.424 4-16.687-1.717-4.7-3.866-7.21-8-10-3.605-1.202-6.895-1.148-10.647-1.147l-2.384-.011c-2.643-.011-5.287-.015-7.931-.019l-5.677-.02c-5.146-.017-10.293-.028-15.44-.036a28280.628 28280.628 0 0 0-39.805-.06c-11.612-.009-23.224-.035-34.835-.076-8.972-.03-17.943-.045-26.915-.048-5.36-.002-10.72-.011-16.08-.036-5.043-.024-10.085-.028-15.127-.018-1.85 0-3.7-.006-5.55-.02-2.528-.017-5.054-.01-7.58.003l-2.217-.033c-5.97.075-9.455 2.239-13.66 6.31-1.682 3.228-1.586 5.968-1.59 9.586l-.058 3.898c.585 4.395 1.556 6.42 4.496 9.727 6.267 3.56 12.187 3.471 19.277 3.512l3.535.054c3.709.054 7.417.088 11.126.121 2.521.034 5.042.068 7.564.104 6.166.085 12.332.153 18.498.209a518.546 518.546 0 0 1 2.063 4.875l1.16 2.742C169 179 169 179 168 181c-.538 12.924 3.414 24.042 9.826 35.064l1.15 1.998 1.034 1.723c2.637 5.9 3.294 11.757 3.256 18.152l.005 2.196c.002 1.519-.002 3.038-.01 4.557-.011 2.304 0 4.608.012 6.912a2545.32 2545.32 0 0 1-.007 4.46l.012 2.053c-.048 4.954-1.033 9.133-2.278 13.885-16.802.023-33.604.041-50.407.052-7.8.005-15.602.012-23.403.023-6.797.01-13.594.017-20.39.02-3.602 0-7.203.003-10.804.01-4.014.009-8.027.009-12.04.009l-3.645.01-3.293-.004-2.88.003C52 272 52 272 51 271c-.1-2.64-.134-5.255-.127-7.896l-.005-2.537c-.004-2.828 0-5.655.003-8.483l-.006-6.055c-.004-5.497-.002-10.995 0-16.493.003-5.74 0-11.48 0-17.22-.003-9.64 0-19.281.005-28.922.005-11.164.003-22.327-.002-33.49-.005-9.567-.005-19.133-.003-28.699.002-5.721.002-11.443-.001-17.165-.003-5.377-.001-10.755.005-16.133 0-1.98 0-3.96-.002-5.94-.002-2.69.001-5.38.006-8.07l-.007-2.407c.022-6.062.077-6.615 6.096-6.616Z" fill="#4949D0"/><path d="m117.76 134.733 2.385-.014c2.638-.013 5.276-.011 7.915-.01 1.89-.006 3.781-.012 5.672-.02a4827.16 4827.16 0 0 1 15.415-.024c4.29-.001 8.579-.009 12.868-.016 10.12-.016 20.24-.021 30.36-.02 10.44.002 20.88-.02 31.319-.051 8.962-.026 17.924-.037 26.887-.036 5.353 0 10.705-.005 16.058-.026 5.036-.02 10.071-.02 15.107-.005 1.847.002 3.693-.003 5.54-.015 2.524-.015 5.048-.006 7.572.01l2.206-.032c5.485.074 8.507 1.522 12.936 4.526 4.113 4.438 5.315 7.79 5.215 13.879-.476 4.694-2.496 8.162-5.277 11.871-7.215 5.526-15.87 5.676-24.633 5.543l-3.253-.013c-3.393-.017-6.785-.054-10.177-.092-2.315-.016-4.63-.03-6.945-.042-5.644-.032-11.287-.082-16.93-.146l-.434 2.355c-.54 2.523-1.32 4.403-2.566 6.645l2 2c1.21 14.115-6.145 29.128-12.582 41.277-1.973 3.788-2.542 6.534-2.532 10.745v3.094l.016 3.333.005 3.418c.005 3.607.018 7.214.03 10.82.006 2.444.01 4.887.014 7.33.011 5.995.028 11.989.049 17.983l-5 1c.457 5.084.936 10.166 1.434 15.247.166 1.72.326 3.44.48 5.16 1.872 22.045 1.872 22.045 11.082 41.714 2.087 3.907 1.916 8.53 2.004 12.879l3 1v23h-2l-.187 2.375L242 384c-2.55 1.164-2.55 1.164-5 2 .095.76.19 1.519.29 2.3.11.995.22 1.989.335 3.013l.352 2.988C238 397 238 397 236 400l-1 2c-3.21 1.07-5.689 1.2-9.062 1.25l-3.223.078L220 403c-2.073-3.11-2.229-3.61-2.094-7.09.11-4.85-.111-9.632-.406-14.472l-.145-2.479c-.116-1.986-.235-3.973-.355-5.959h-2l-1-18h2l-1-1.5c-1.436-3.59-1.129-6.645-1-10.5l-14 1c.03 1.195.062 2.39.094 3.621 0 6.531-.83 12.964-1.594 19.442l-.434 3.779c-.35 3.053-.706 6.106-1.066 9.158h-1l-1 12h2c-.75 7.625-.75 7.625-3 11-2.715.328-2.715.328-5.937.25-1.061-.015-2.122-.03-3.215-.047C182 403 182 403 179 402c-2.036-5.073-2.23-10.605-2-16l-2.25-.75c-3.074-1.397-4.679-2.587-6.75-5.25-2.173-9.884-1.515-20.256 1-30h3l.625-3.25c1.197-4.875 3.45-9.04 5.84-13.43 3.974-8.594 5.259-17.273 6.223-26.632l.392-3.436c.838-7.776 1.073-15.434.92-23.252l-1.937-.375L182 279c-1.81-3.62-1.398-8.263-.504-12.162.618-3.479.685-6.89.707-10.412l.017-2.194c.01-1.529.016-3.057.02-4.586.01-2.309.04-4.617.073-6.925.083-11.343-1.43-20.038-7.25-29.846-5.583-9.898-8.552-20.442-8.063-31.875l1-2c-.544-2.462-.544-2.462-1.437-5.125l-.872-2.758L165 169l-1.958.027c-6.749.089-13.497.149-20.247.193-2.516.02-5.032.047-7.547.082-3.625.048-7.248.071-10.873.089l-3.388.062c-6.489.002-11.634-.552-16.987-4.453-4.832-5.469-4.703-10.389-4.523-17.414.627-4.296 1.736-6.42 4.82-9.387 4.44-3.126 8.1-3.489 13.464-3.466ZM201 341v1h12v-1h-12Zm16 30 1 2Z" fill="#FCFCFD"/><path d="m372 109 3 1v2h2c1.342 2.933 2.672 5.872 4 8.813l1.156 2.525 1.094 2.432 1.016 2.237C385 130 385 130 385 133l3 1 .34 3.426c.694 5.556 2.328 10.778 3.931 16.127 1.14 3.918 2.052 7.317 1.729 11.447h2l.184 2.371.253 3.066.247 3.06c.048 2.44.048 2.44 1.316 3.503 2.524 14.985 2.524 33.015 0 48l-1 1a123.141 123.141 0 0 0-.563 5.563l-.253 3.066L396 237h-2l-.344 3.922c-.55 4.953-1.742 9.56-3.156 14.328-2 6.813-2 6.813-3.5 13.75h-2l-.41 1.66c-6.493 23.911-23.067 46.73-40.981 63.575-1.759 1.754-1.759 1.754-2.814 4.336C339 341 339 341 336.161 341.628l-3.497.003-3.964.038c-1.43-.012-2.86-.026-4.29-.04-1.466 0-2.932.003-4.397.007-3.073.003-6.145-.012-9.218-.04a880.06 880.06 0 0 0-11.806-.008c-3.027.01-6.055.001-9.082-.014-1.451-.005-2.902-.005-4.353.002-2.03.005-4.06-.018-6.089-.043l-3.499-.018c-3.598-.625-4.623-1.803-6.966-4.515-2.867-1.446-2.867-1.446-6.063-2.563l-3.16-1.19c-4.867-1.606-9.832-2.898-14.777-4.247v-47l10.645-.044c11.603-.05 23.206-.117 34.809-.192 7.035-.045 14.07-.084 21.106-.11a5548.62 5548.62 0 0 0 20.365-.117c2.591-.017 5.182-.028 7.773-.035 3.627-.01 7.254-.037 10.88-.07l3.25.005c5.433-.069 9.545-.25 14.172-3.437 2.042-3.063 2.255-3.71 2.303-7.166l.05-2.615.026-2.91.05-3.153c.055-3.573.094-7.146.134-10.719.035-2.556.07-5.113.107-7.67.131-9.589.231-19.178.33-28.767l.032-3.126c.356-34.291.672-68.583.968-102.874Z" fill="#99DEFC"/><path d="m41 109 .002 2.508c.015 20.148.057 40.296.13 60.444.035 9.744.06 19.487.064 29.23.003 8.495.023 16.988.065 25.482.02 4.496.033 8.992.025 13.488-.007 4.236.008 8.47.042 12.706.008 1.551.008 3.102-.001 4.654-.129 10.62-.129 10.62 4.212 20.097 3.201 3.047 6.087 3.642 10.422 3.67l3.025.033 3.3.007 3.49.03c3.809.031 7.618.048 11.427.065 2.64.019 5.28.038 7.92.059 6.24.047 12.48.083 18.72.116 7.105.039 14.21.088 21.316.138 14.613.104 29.227.191 43.841.273v47l-15 4c-7.443 2.728-7.443 2.728-13 8H75v-2h-2v-3h-3a87.917 87.917 0 0 1-3-5c-2.065-2.409-2.89-2.963-6-4l-.938-2.438c-.778-2.695-.778-2.695-2.992-3.457-2.653-1.416-3.075-2.619-4.258-5.355-2.044-4.378-4.446-8.364-7.124-12.375-9.303-14.117-16.453-29.912-21.563-46l-.653-2.047C22.462 252.022 22 249.498 22 246h-3c-.194-2.124-.38-4.25-.563-6.375l-.316-3.586C18 233 18 233 19 231h-2v-6h-2c-.912-8.205-1.153-16.311-1.125-24.563l-.012-3.498c.008-6.708.305-13.28 1.137-19.939h2l-.063-2.875C17 171 17 171 18 169c.276-3.374.447-6.748.621-10.129L19 156l2-1c2.026-6.147 3.27-12.575 4-19h2l1-3.438c1.668-5.02 3.832-9.773 6.063-14.562l1.068-2.322C38.287 109 38.287 109 41 109Zm-22 54 1 2Zm0 74 1 2Z" fill="#97DEFB"/><path d="m56.962 64.874 3.276-.008 3.644.007 3.837-.005c3.53-.004 7.06-.002 10.59.001 3.802.003 7.603 0 11.404-.004 7.452-.004 14.905-.003 22.357 0 6.054.002 12.108.002 18.162.001h2.606l5.24-.001c16.399-.003 32.797 0 49.196.006 14.086.004 28.173.003 42.26-.001a95108.075 95108.075 0 0 1 54.234-.004h2.595c6.05.002 12.1 0 18.151-.002 7.368-.003 14.736-.002 22.105.003 3.763.003 7.526.004 11.289 0 4.07-.003 8.14.001 12.21.006l3.644-.007 3.276.008h2.851C362 65 362 65 363 66c.098 2.643.13 5.26.12 7.903l.003 2.54c.002 2.83-.004 5.659-.01 8.489l.001 6.06c0 5.501-.006 11.003-.013 16.505-.006 5.743-.006 11.486-.008 17.229-.003 10.883-.011 21.766-.021 32.65-.011 12.386-.017 24.773-.022 37.16-.01 25.488-.028 50.976-.05 76.464h-1V95H52v176h-1c-.023-26.711-.041-53.423-.052-80.134a73754.56 73754.56 0 0 0-.023-37.205c-.01-10.805-.017-21.61-.02-32.415 0-5.725-.003-11.45-.01-17.175-.007-5.382-.01-10.764-.008-16.146 0-1.981-.002-3.962-.006-5.944a2833.33 2833.33 0 0 1-.001-8.078l-.01-2.408c.018-6.065.07-6.62 6.092-6.62Z" fill="#8585F9"/><path d="M196 9c7.334-.066 14.666-.066 22 0l2.21.018C235.573 9.25 251.326 12.525 266 17v2l2.047.078c5.67.36 8.008.722 11.953 4.922 2.04.408 4.08.812 6.125 1.195C296.459 28.088 314.017 36.026 320 45v3l1.75.25c2.904.968 4.287 2.437 6.25 4.75v2H86c1-5 1-5 3.188-7.188C92 46 92 46 95.188 45c2.918-.668 2.918-.668 3.714-2.852C102.642 34.83 114.682 29.864 122 27c2.584-.414 4.39-.356 7 0l1-3c1.977-.73 3.98-1.394 6-2l3-2c8.396-3.474 17.036-4.125 26-5v-2c10.344-3.469 20.242-3.304 31-3V9Zm-15 2 4 1Z" fill="#98DEFC"/><path d="m200.914 273.867 3.305-.004 3.406.012 3.43-.012a483824718.21 483824718.21 0 0 1 6.291.008c2.378.116 4.382.45 6.654 1.129l1 6h2l.288 3.11c1.412 30.513 1.412 30.513 12.708 58.011 2.087 3.907 1.916 8.53 2.004 12.879l3 1v23h-2l-.188 2.375L242 384c-2.55 1.164-2.55 1.164-5 2 .095.76.19 1.519.29 2.3.11.995.22 1.989.335 3.012l.352 2.989C238 397 238 397 236 400l-1 2c-3.21 1.07-5.689 1.2-9.063 1.25l-3.222.078L220 403c-2.073-3.11-2.229-3.61-2.094-7.09.11-4.85-.111-9.632-.406-14.473l-.145-2.478c-.116-1.986-.235-3.973-.355-5.959h-2l-1-18h2l-1-1.5c-1.436-3.59-1.129-6.645-1-10.5l-14 1c.03 1.195.062 2.39.094 3.621 0 6.531-.83 12.964-1.594 19.442l-.434 3.779c-.35 3.053-.706 6.106-1.066 9.158h-1l-1 12h2c-.75 7.625-.75 7.625-3 11-2.715.328-2.715.328-5.938.25-1.06-.015-2.121-.03-3.214-.047C182 403 182 403 179 402c-2.036-5.073-2.23-10.605-2-16l-2.25-.75c-3.074-1.397-4.679-2.587-6.75-5.25-2.173-9.884-1.515-20.256 1-30h3l.625-3.25c1.197-4.875 3.45-9.04 5.84-13.43 3.974-8.594 5.259-17.273 6.222-26.632l.393-3.436c.838-7.776 1.073-15.434.92-23.252h2l1-5c4.021-.752 7.825-1.128 11.914-1.133ZM201 341v1h12v-1h-12Zm16 30 1 2Z" fill="#2B2A63"/><path d="M168 159c2.375.063 2.375.063 5 1 2.022 3.207 3 5.192 3 9h3c.125 7.625.125 7.625-1 11 .759 2.715.759 2.715 2.027 5.707.46 1.138.918 2.277 1.39 3.45l1.52 3.655.762 1.85c6.052 16.51 6.052 16.51 17.301 29.338-1.065-3.55-2.353-6.786-4.063-10.063-1.532-2.967-2.518-5.588-2.937-8.937l3 1 2 8h18l-4 10h3l.766-2.102c1.4-3.289 3.141-6.21 4.984-9.273 4.251-7.26 7.394-14.724 10.25-22.625l1.035-2.781c2.084-6.125 2.295-11.782 1.965-18.219h3l.402-1.934.536-2.504.527-2.496C240 160 240 160 241 159a99.984 99.984 0 0 1 5 0l2 5h2c-1.029 5.446-2.246 10.118-5 15l2 2c1.21 14.115-6.145 29.128-12.582 41.277-1.973 3.788-2.542 6.534-2.532 10.745v3.094l.016 3.333.005 3.418c.005 3.607.018 7.214.03 10.82.006 2.444.01 4.887.014 7.33.011 5.995.028 11.989.049 17.983l-7 2-1-6h-35v5c-2 1-2 1-4.563.188C182 279 182 279 181 277c-.23-6.999-.23-6.999.496-10.162.618-3.479.685-6.89.707-10.412l.017-2.194c.01-1.529.016-3.057.02-4.586.01-2.309.04-4.617.072-6.925.084-11.343-1.43-20.038-7.25-29.846-5.582-9.898-8.551-20.442-8.062-31.875l1-2c-.774-2.594-.774-2.594-1.938-5.438C164 168.313 164 168.313 164 165h2l.438-2.438C167 160 167 160 168 159Z" fill="#F9B406"/><path d="M179 169h56c.804 8.848.967 13.332-1.875 21.125l-.948 2.719c-3.2 8.828-7.354 17.11-12.177 25.156l-1.053 1.801c-1.029 1.672-1.029 1.672-2.947 4.199h-3c.486-3.123.999-5.996 2-9h-16l-3-9h-1a828.64 828.64 0 0 0 1.875 5.375l1.055 3.023c.918 2.706.918 2.706 3.07 4.602.125 2.625.125 2.625 0 5-7.943-3.279-11.345-13.33-14.563-20.75l-1.155-2.646c-.754-1.738-1.505-3.477-2.25-5.219-.9-2.078-1.835-4.133-2.79-6.186l-1.43-3.262-1.23-2.722C177 180 177 180 179 169Z" fill="#4A4ACD"/><path d="M266 135c5.142-.092 10.281-.172 15.424-.22 1.746-.02 3.493-.047 5.24-.082a608.95 608.95 0 0 1 7.559-.089l2.343-.062c5.611-.002 8.802 1.261 13.434 4.453 4.113 4.438 5.315 7.79 5.215 13.879-.476 4.694-2.496 8.162-5.277 11.871-6.749 5.169-14.862 5.69-23.102 5.543l-2.782-.013c-2.893-.017-5.786-.054-8.679-.093-1.978-.015-3.956-.028-5.934-.04-4.814-.033-9.627-.085-14.441-.147v-1h11v-34Z" fill="#D1D1FD"/><path d="m227 281 18 1v47l11 2c2.779.887 5.382 1.778 8.063 2.875l1.966.738c4.126 1.654 4.882 2.21 6.971 6.387h65v1c-8.087.133-16.174.264-24.262.391-3.759.06-7.518.12-11.277.182-20.156.333-40.302.5-60.461.427l.496 2.262c.604 3.282.57 6.408.504 9.738h-1l-.516-2.633-.734-3.492-.703-3.445c-.885-3.49-.885-3.49-2.992-6.336-2.47-3.72-3.55-7.187-4.68-11.469l-.644-2.401C227.995 310.71 227.55 295.907 227 281Z" fill="#DBF1FA"/><path d="M169 282h18c.344 21.626-1.59 43.222-13 62a216.787 216.787 0 0 0-2 4v-5l-2.248.008c-19.883.06-39.747-.144-59.627-.508l-8.262-.145c-6.62-.115-13.242-.234-19.863-.355v-1h59l2-4c7.315-4.628 17.31-8 26-8v-47Z" fill="#DBF0FB"/><path d="m207.563 188.625 3.44-.148C214 189 214 189 215.778 191.46L217 194l2 1c1.57 4.71 2.189 10.299.14 14.953A33.149 33.149 0 0 1 215 215c-2.697.073-5.367.092-8.063.063l-2.298-.014c-1.88-.012-3.76-.03-5.639-.049l-.586-1.934-.789-2.504-.773-2.496c-.66-2.244-.66-2.244-2.852-3.066-.081-1.937-.14-3.875-.188-5.813l-.105-3.269C194 193 194 193 195.262 191.176c3.761-2.545 7.859-2.42 12.3-2.551Z" fill="#2A2762"/><path d="M233 373c1.676 1.031 1.676 1.031 3 3 .54 2.673.922 5.176 1.188 7.875l.248 2.145c1.123 10.141 1.123 10.141-1.436 13.98l-1 2c-3.21 1.07-5.689 1.2-9.063 1.25l-3.222.078L220 403c-2.136-3.204-2.242-3.996-2.195-7.668l.02-2.705.05-2.815.027-2.85c.024-2.32.057-4.641.098-6.962h3l.313-1.813c1.802-5.735 6.22-6.311 11.687-5.187Z" fill="#F7A708"/><path d="M234 328c5.714-.173 10.708.323 16.25 1.688l2.22.539c6.347 1.607 12.897 3.367 18.53 6.773l2 4h65v1c-8.087.133-16.174.264-24.262.391-3.759.06-7.518.12-11.277.182-20.156.333-40.302.5-60.461.427l.496 2.262c.604 3.282.57 6.408.504 9.738h-1l-.516-2.633c-1.348-6.414-2.71-10.957-6.484-16.367-.604-2.697-.809-5.23-1-8Z" fill="#F2F7FA"/><path d="M184.938 372.5c3.046.157 3.972.437 6.562 2.25C193 377 193 377 193 381h2v11h2c-.75 7.625-.75 7.625-3 11-2.715.328-2.715.328-5.938.25-1.06-.015-2.121-.03-3.214-.047C182 403 182 403 179 402c-2.05-5.84-2.125-11.208-1.813-17.313l.091-2.101c.427-6.15 1.26-9.273 7.66-10.086Z" fill="#F6A507"/><path d="M179 327c.651 7.162-1.275 10.995-5 17a175.448 175.448 0 0 0-2 4v-5l-2.248.008c-19.883.06-39.747-.144-59.627-.508l-8.262-.145c-6.62-.115-13.242-.234-19.863-.355v-1h59l2-4c9.723-6.299 24.562-10 36-10Z" fill="#F8FAFC"/><path d="M206 299c3 2 3 2 3.875 4.95.23 1.233.46 2.466.695 3.738l.384 1.994c.402 2.104.787 4.21 1.171 6.318.394 2.107.792 4.212 1.193 6.318.361 1.91.713 3.821 1.065 5.733.469 2.865.469 2.865 1.617 4.949.022 1.88.022 1.88-.121 4.133l-.147 2.441-.17 2.551-.158 2.574c-.13 2.1-.266 4.2-.404 6.301h-1v-8h-14v-2h-2c-.25-7.401-.25-7.401.934-10.229 1.198-3.113 1.764-6.06 2.32-9.35.215-1.242.43-2.484.65-3.765l.659-3.906c.434-2.569.873-5.136 1.316-7.703l.58-3.443C205 300 205 300 206 299Zm-5 42v1h12v-1h-12Z" fill="#ECECF2"/><path d="M285.992 139.652c3.29.57 4.884 1.826 7.008 4.348.622 3.652.25 5.487-1.375 8.813C290 155 290 155 288 156c-3.762.348-6.141.506-9.438-1.438-2.244-3.68-2.423-7.35-1.562-11.562 2.478-3.374 4.857-3.523 8.992-3.348Z" fill="#F7F7FE"/><path d="M169 282h18c.098 8.496.098 8.496 0 11-1 1-1 1-4.816 1.098a762.816 762.816 0 0 1-4.746-.036l-2.444-.013c-1.998-.012-3.996-.03-5.994-.049v-12Z" fill="#CBE9F7"/><path d="M168 159c2.375.063 2.375.063 5 1 2.022 3.207 3 5.192 3 9h3c.483 7.363.483 7.363-1.563 10.063-3.397 1.306-5.932.678-9.437-.063a958.351 958.351 0 0 1-2-5.313l-1.125-2.988C164 168 164 168 164 165h2l.438-2.438C167 160 167 160 168 159Z" fill="#FA6E3B"/><path d="m227 281 18 1v12h-16c-2-6-2-6-2-13Z" fill="#CCEBF8"/><path d="M206 299c3 2 3 2 3.708 4l.46 2.43.518 2.66.501 2.785.538 2.762c.739 3.9 1.275 7.373 1.275 11.363-2.405 1.203-3.95 1.1-6.625 1.063l-2.477-.028L202 326c-.915-3.657-.983-6.356-.258-10.047l.543-2.808.59-2.895.566-2.941c1.413-7.163 1.413-7.163 2.559-8.309Z" fill="#CADCE9"/><path d="M243.563 158.938 246 159l2 5h2c-1.029 5.446-2.246 10.118-5 15h-9l-1-10h3l.402-1.934.536-2.504.527-2.496c.78-3.013.907-3.05 4.097-3.129Z" fill="#FB703D"/><path d="M123 144c2.563 1.438 2.563 1.438 4 4 .166 3.12-.039 6.019-1 9-4.004 2.67-7.294 2.701-12 2-2.063-1.625-2.063-1.625-3-4-.408-3.913-.205-6.693 2-10 3.211-1.606 6.517-1.467 10-1Z" fill="#9DDFFC"/><path d="M162 144c2.5 1 2.5 1 4 3 .553 4.355.745 6.704-1.438 10.5-3.708 2.17-7.353 2.199-11.562 1.5-2.51-2.51-2.297-3.468-2.313-6.938l-.05-2.652c.363-2.41.363-2.41 1.636-4.203 2.972-2.077 6.288-1.691 9.727-1.207Z" fill="#9BDFFC"/><path d="M181 144c2.438.938 2.438.938 4 3 .624 3.806 1.063 7.503-1.246 10.754-3.248 2.307-6.951 1.876-10.754 1.246-2.063-1.625-2.063-1.625-3-4-.408-3.913-.205-6.693 2-10 3.057-1.528 5.63-1.232 9-1ZM144 145c2 2 2 2 2.375 5.875-.096 2.934-.322 4.037-1.875 6.625-3.756 2.254-6.146 1.984-10.5 1.5-2.192-1.59-2.897-2.488-3.434-5.156-.01-6.188-.01-6.188 1.871-8.969 3.889-1.328 7.609-.89 11.563.125Z" fill="#9BDEFC"/><path d="m194 205 3 1 2 8h18l-4 10h-12l-.75-2.5a57.555 57.555 0 0 0-3.313-7.563c-1.532-2.967-2.518-5.588-2.937-8.937Z" fill="#E05F3C"/><path d="m220 207 4 2c-1.369 3.635-2.983 6.956-4.938 10.313l-1.527 2.675L216 224h-3c.444-5.622 2.902-12.902 7-17Z" fill="#5F51B7"/><path d="M193 205c2 1 2 1 3 3.434l1 3.004c1.333 4.184 1.333 4.184 4 7.562.125 2.625.125 2.625 0 5-3.604-1.446-5.114-3.191-7.188-6.438l-1.542-2.37C191 213 191 213 190 210l2-1c.652-2.025.652-2.025 1-4Z" fill="#6652B2"/><path d="M283 143c4.556.556 4.556.556 6 2 .04 2 .043 4 0 6-3.375.625-3.375.625-7 1l-2-2c.33-3.297.623-4.623 3-7Z" fill="#D7D7FF"/><path d="M292 153c3.356.6 5.378 1.846 8 4l-1 5c-3.356-.6-5.378-1.846-8-4l1-5Z" fill="#F5F5FE"/><path d="M218 380h3c.054 1.604.093 3.208.125 4.813l.07 2.707C221 390 221 390 219 393c-1.322-2.645-1.097-4.678-1.063-7.625l.028-3.04L218 380Z" fill="#DE9917"/><path d="m224 275 7 1 1 3-7 2-1-6Z" fill="#A16C22"/><path d="M183 276h6l-1 5-6-2 1-3Z" fill="#AC762A"/><path d="M394 165h2l1 11-2 1c-.982-4.053-1.082-7.839-1-12Z" fill="#BFEAFD"/><path d="M21 155c1.108 3.325.845 5.622 0 9l-2-1v-7l2-1Z" fill="#A5E2FC"/><path d="m384 130 1 3 3 1-1 5c-2.762-2.762-2.579-5.207-3-9Z" fill="#BBE9FC"/></svg>